{"title":"Fair.Game.2010.DVDSCR.XViD.AC3-T0XiC-iNK","uid":6132754,"size":1486787093,"categoryP":"video","categoryS":"movies","magnet":"?xt=urn:btih:00939a3c62e0a7d421c93847165dd92239eacac1&amp;dn=Fair.Game.2010.DVDSCR.XViD.AC3-T0XiC-iNK&amp;tr=udp%3A%2F%2Ftracker.openbittorrent.com%3A80&amp;tr=udp%3A%2F%2Fopen.demonii.com%3A1337&amp;tr=udp%3A%2F%2Ftracker.coppersurfer.tk%3A6969&amp;tr=udp%3A%2F%2Fexodus.desync.com%3A6969","seeders":0,"leechers":0,"uploader":"HeroMaster","files":-1,"time":1296194631,"description":"[img]http://thedoubleg.com/wp-content/uploads/2010/12/fair-game-movie-poster.jpg[/img]\n \n::::::::::::::Enjoy:Another:Release:From:T0XiC::::::::::::::\n \nFile:: Fair.Game.2010.DVDSCR.XViD.AC3-T0XiC-iNK\nVideo Source::.. cheers bro ;)\nAudio Source:: ....cheers bro ;)\nLanguage::English\nIMDB::http://www.imdb.com/title/tt0977855/\n \nPlame's status as a CIA agent was revealed by White House officials allegedly out to discredit her husband..\n \nSpecs::\n \nGeneral\n \nFormat                           : AVI\nFormat/Info                      : Audio Video Interleave\nFile size                        : 1.37 GiB\nDuration                         : 1h 47mn\nOverall bit rate                 : 1 830 Kbps\nWriting application              : VirtualDubMod 1.5.10.2 (build 2542/release)\nWriting library                  : VirtualDub build 32661/release\n \nVideo\nID                               : 0\nFormat                           : MPEG-4 Visual\nFormat profile                   : Advanced Simple@L5\nFormat settings, BVOP            : Yes\nFormat settings, QPel            : No\nFormat settings, GMC             : No warppoints\nFormat settings, Matrix          : Default (MPEG)\nCodec ID                         : XVID\nCodec ID/Hint                    : XviD\nDuration                         : 1h 47mn\nBit rate                         : 1 372 Kbps\nWidth                            : 720 pixels\nHeight                           : 304 pixels\nDisplay aspect ratio             : 2.35:1\nFrame rate                       : 23.976 fps\nColor space                      : YUV\nChroma subsampling               : 4:2:0\nBit depth                        : 8 bits\nScan type                        : Progressive\nBits/(Pixel*Frame)               : 0.262\nStream size                      : 1.03 GiB (75%)\nWriting library                  : XviD 1.2.0.dev47 (UTC 2006-11-01)\n \nAudio\nID                               : 1\nFormat                           : AC-3\nFormat/Info                      : Audio Coding 3\nMode extension                   : CM (complete main)\nCodec ID                         : 2000\nDuration                         : 1h 47mn\nBit rate mode                    : Constant\nBit rate                         : 448 Kbps\nChannel(s)                       : 6 channels\nChannel positions                : Front: L C R, Side: L R, LFE\nSampling rate                    : 48.0 KHz\nBit depth                        : 16 bits\nStream size                      : 344 MiB (24%)\nAlignment                        : Split accross interleaves\nInterleave, duration             : 42 ms (1.00 video frame)\nInterleave, preload duration     : 500 ms\n \n \n \n \n \n \nNOTES:: As you can tell its not the best quality screener ever, but its still very watchable imo... if you can't wait, we will probably be doing a v2 sometime in the near future...\nmake sure you check sample, enjoy :)\n \n \n::Why Complain? Whats Free Is Free::\n \n::We are always looking for friends with unreleased DVD's, Screeners, R5's, Audio, Cams, Silvers,\n...and any other good sources you may have to offer - contact us: &lt;a class=&quot;__cf_email__&quot; href=&quot;/cdn-cgi/l/email-protection&quot; data-cfemail=&quot;b8cc88c0d1dbcaddd4ddd9cbddcbf8d0cdcbd0d5d9d1d496dbd7d5&quot;&gt;[email&amp;#160;protected]&lt;/a&gt;&lt;script cf-hash='f9e31' type=&quot;text/javascript&quot;&gt;\n/* &lt;![CDATA[ */!function(){try{var t=&quot;currentScript&quot;in document?document.currentScript:function(){for(var t=document.getElementsByTagName(&quot;script&quot;),e=t.length;e--;)if(t[e].getAttribute(&quot;cf-hash&quot;))return t[e]}();if(t&amp;&amp;t.previousSibling){var e,r,n,i,c=t.previousSibling,a=c.getAttribute(&quot;data-cfemail&quot;);if(a){for(e=&quot;&quot;,r=parseInt(a.substr(0,2),16),n=2;a.length-n;n+=2)i=parseInt(a.substr(n,2),16)^r,e+=String.fromCharCode(i);e=document.createTextNode(e),c.parentNode.replaceChild(e,c)}}}catch(u){}}();/* ]]&gt; */&lt;/script&gt;\n \n::::::::::::::::::::::::::::::::::::   Respect To   :::::::::::::::::::::::::::::::::::::\n::IMAGiNE,FLAWL3SS,Hive-CM8,DiGiTALiNK,Tranz,Vik,OneTwo,Joey,bob,&amp; our friends on utn and PA::\n                       &quot;and to all of you who support us, Thank-You&quot;\n\n\nScreenshots:\n\n &lt;a href=&quot;\nhttp://noob.hu/2011/01/28/bscap0025.jpg&quot; rel=&quot;nofollow&quot; target=&quot;_NEW&quot;&gt;\nhttp://noob.hu/2011/01/28/bscap0025.jpg&lt;/a&gt;\n &lt;a href=&quot;\nhttp://noob.hu/2011/01/28/bscap0026.jpg&quot; rel=&quot;nofollow&quot; target=&quot;_NEW&quot;&gt;\nhttp://noob.hu/2011/01/28/bscap0026.jpg&lt;/a&gt;\n &lt;a href=&quot;\nhttp://noob.hu/2011/01/28/bscap0027.jpg&quot; rel=&quot;nofollow&quot; target=&quot;_NEW&quot;&gt;\nhttp://noob.hu/2011/01/28/bscap0027.jpg&lt;/a&gt;\n\n\nENJOY!","torrent":{"xt":"urn:btih:00939a3c62e0a7d421c93847165dd92239eacac1","amp;dn":"Fair.Game.2010.DVDSCR.XViD.AC3-T0XiC-iNK","amp;tr":["udp%3A%2F%2Ftracker.openbittorrent.com%3A80","udp%3A%2F%2Fopen.demonii.com%3A1337","udp%3A%2F%2Ftracker.coppersurfer.tk%3A6969","udp%3A%2F%2Fexodus.desync.com%3A6969"],"infoHash":"00939a3c62e0a7d421c93847165dd92239eacac1","infoHashBuffer":{"type":"Buffer","data":[0,147,154,60,98,224,167,212,33,201,56,71,22,93,217,34,57,234,202,193]},"announce":[],"urlList":[]}}